# xmcd CD database file
#
# Track frame offsets:
#	150
#	15125
#	34947
#	49117
#	68307
#	87555
#	105745
#	133360
#	149242
#	168977
#	185880
#	202795
#	222605
#	247790
#
# Disc length: 3565 seconds
#
# Revision: 0
# Processed by: cddbd v1.5.1PL0 Copyright (c) Steve Scherf et al.
# Submitted via: CDex 1.51
#
DISCID=cb0deb0e
DTITLE=Psycho le Cemu - FRONTIERS
DYEAR=2003
DGENRE=Japanese Rock
TTITLE0=輝きの中へ・・・
TTITLE1=激愛メリーゴーランド
TTITLE2=春夏秋冬
TTITLE3=浪漫飛行
TTITLE4=VISITOR
TTITLE5=Mind Core
TTITLE6=凛〜愛する者のために〜
TTITLE7=銀狼
TTITLE8=DANCE II HEAVEN
TTITLE9=BLUE AGAIN
TTITLE10=一億のパルチザン
TTITLE11=With
TTITLE12=アクエリア (HARD STYLE)
TTITLE13=愛の唄 (NEW MIX)
EXTD=YEAR: 2003
EXTT0=
EXTT1=
EXTT2=
EXTT3=
EXTT4=
EXTT5=
EXTT6=
EXTT7=
EXTT8=
EXTT9=
EXTT10=
EXTT11=
EXTT12=
EXTT13=
PLAYORDER=
